#Comment line ignore any data following # character 
#Hierarchical Translation and Rotation (.htr) file 
[Header]	
#Header keywords are followed by a single value 
FileType HTR		#Single word string
DataType HTRS		#Translation followed by rotation and scale data
FileVersion 1		#integer
NumSegments 84		#integer
NumFrames 2		#integer
DataFrameRate 30		#integer, data frame rate in this file
EulerRotationOrder ZYX
CalibrationUnits mm
RotationUnits Degrees
GlobalAxisofGravity Y
BoneLengthAxis Y
ScaleFactor 1.00
[SegmentNames&Hierarchy]
#CHILD	PARENT
MASTER GLOBAL
root MASTER
chest root
L_mid_tent01 root
R_mid_tent01 root
spine01 root
Bip01_Neck chest
L_humerus chest
R_humerus chest
weapon_bone chest
Bip01_Head Bip01_Neck
eye_left_bone Bip01_Head
eye_right_bone Bip01_Head
L_forearm L_humerus
L_front_hand L_forearm
L_weapon_bone L_forearm
L_front_hand01_01 L_front_hand
L_front_hand02_01 L_front_hand
L_front_hand03_01 L_front_hand
L_front_hand01_02 L_front_hand01_01
L_front_hand02_02 L_front_hand02_01
L_front_hand03_02 L_front_hand03_01
R_forearm R_humerus
R_front_hand R_forearm
R_weapon_bone R_forearm
R_front_hand01_01 R_front_hand
R_front_hand02_01 R_front_hand
R_front_hand03_01 R_front_hand
R_front_hand01_02 R_front_hand01_01
R_front_hand02_02 R_front_hand02_01
R_front_hand03_02 R_front_hand03_01
null_rope01_connect L_mid_tent01
Rope1_Seg01 null_rope01_connect
Rope1_Seg02 Rope1_Seg01
Rope1_Seg03 Rope1_Seg02
Rope1_Seg04 Rope1_Seg03
Rope1_Seg05 Rope1_Seg04
Rope1_Seg06 Rope1_Seg05
Rope1_Seg07 Rope1_Seg06
Rope1_Seg09 Rope1_Seg07
L_mid_hand01 Rope1_Seg09
L_mid_hand02 Rope1_Seg09
L_mid_hand03 Rope1_Seg09
null_rope02_connect R_mid_tent01
Rope2_Seg01 null_rope02_connect
Rope2_Seg02 Rope2_Seg01
Rope2_Seg03 Rope2_Seg02
Rope2_Seg04 Rope2_Seg03
Rope2_Seg05 Rope2_Seg04
Rope2_Seg06 Rope2_Seg05
Rope2_Seg07 Rope2_Seg06
Rope2_Seg09 Rope2_Seg07
R_mid_hand01 Rope2_Seg09
R_mid_hand02 Rope2_Seg09
R_mid_hand03 Rope2_Seg09
spine02 spine01
spine03 spine02
pelvis spine03
null_rope03_connect pelvis
null_rope04_connect pelvis
Rope3_Seg01 null_rope03_connect
Rope3_Seg02 Rope3_Seg01
Rope3_Seg03 Rope3_Seg02
Rope3_Seg04 Rope3_Seg03
Rope3_Seg05 Rope3_Seg04
Rope3_Seg06 Rope3_Seg05
Rope3_Seg07 Rope3_Seg06
Rope3_Seg08 Rope3_Seg07
Rope3_Seg09 Rope3_Seg08
R_rear_hand01 Rope3_Seg09
R_rear_hand02 Rope3_Seg09
R_rear_hand03 Rope3_Seg09
Rope4_Seg01 null_rope04_connect
Rope4_Seg02 Rope4_Seg01
Rope4_Seg03 Rope4_Seg02
Rope4_Seg04 Rope4_Seg03
Rope4_Seg05 Rope4_Seg04
Rope4_Seg06 Rope4_Seg05
Rope4_Seg07 Rope4_Seg06
Rope4_Seg08 Rope4_Seg07
Rope4_Seg09 Rope4_Seg08
L_rear_hand01 Rope4_Seg09
L_rear_hand02 Rope4_Seg09
L_rear_hand03 Rope4_Seg09
[BasePosition]
#SegmentName Tx, Ty, Tz, Rx, Ry, Rz, BoneLength
MASTER 0.000000 0.000000 0.000000 -90.000000 0.000000 0.000000 10.000000 
root 0.000000 0.000000 0.000000 0.000000 0.000000 0.000000 10.000000 
chest 0.000000 0.000000 0.000000 0.000000 0.000000 0.000000 10.000000 
L_mid_tent01 0.000000 0.000000 0.000000 0.000000 0.000000 0.000000 10.000000 
R_mid_tent01 0.000000 0.000000 0.000000 0.000000 0.000000 0.000000 10.000000 
spine01 0.000000 0.000000 0.000000 0.000000 0.000000 0.000000 10.000000 
Bip01_Neck 0.000000 0.000000 0.000000 0.000000 0.000000 0.000000 10.000000 
L_humerus 0.000000 0.000000 0.000000 0.000000 0.000000 0.000000 10.000000 
R_humerus 0.000000 0.000000 0.000000 0.000000 0.000000 0.000000 10.000000 
weapon_bone 0.000000 0.000000 0.000000 0.000000 0.000000 0.000000 10.000000 
Bip01_Head 0.000000 0.000000 0.000000 0.000000 0.000000 0.000000 10.000000 
eye_left_bone 0.000000 0.000000 0.000000 0.000000 0.000000 0.000000 10.000000 
eye_right_bone 0.000000 0.000000 0.000000 0.000000 0.000000 0.000000 10.000000 
L_forearm 0.000000 0.000000 0.000000 0.000000 0.000000 0.000000 10.000000 
L_front_hand 0.000000 0.000000 0.000000 0.000000 0.000000 0.000000 10.000000 
L_weapon_bone 0.000000 0.000000 0.000000 0.000000 0.000000 0.000000 10.000000 
L_front_hand01_01 0.000000 0.000000 0.000000 0.000000 0.000000 0.000000 10.000000 
L_front_hand02_01 0.000000 0.000000 0.000000 0.000000 0.000000 0.000000 10.000000 
L_front_hand03_01 0.000000 0.000000 0.000000 0.000000 0.000000 0.000000 10.000000 
L_front_hand01_02 0.000000 0.000000 0.000000 0.000000 0.000000 0.000000 10.000000 
L_front_hand02_02 0.000000 0.000000 0.000000 0.000000 0.000000 0.000000 10.000000 
L_front_hand03_02 0.000000 0.000000 0.000000 0.000000 0.000000 0.000000 10.000000 
R_forearm 0.000000 0.000000 0.000000 0.000000 0.000000 0.000000 10.000000 
R_front_hand 0.000000 0.000000 0.000000 0.000000 0.000000 0.000000 10.000000 
R_weapon_bone 0.000000 0.000000 0.000000 0.000000 0.000000 0.000000 10.000000 
R_front_hand01_01 0.000000 0.000000 0.000000 0.000000 0.000000 0.000000 10.000000 
R_front_hand02_01 0.000000 0.000000 0.000000 0.000000 0.000000 0.000000 10.000000 
R_front_hand03_01 0.000000 0.000000 0.000000 0.000000 0.000000 0.000000 10.000000 
R_front_hand01_02 0.000000 0.000000 0.000000 0.000000 0.000000 0.000000 10.000000 
R_front_hand02_02 0.000000 0.000000 0.000000 0.000000 0.000000 0.000000 10.000000 
R_front_hand03_02 0.000000 0.000000 0.000000 0.000000 0.000000 0.000000 10.000000 
null_rope01_connect 0.000000 0.000000 0.000000 0.000000 0.000000 0.000000 10.000000 
Rope1_Seg01 0.000000 0.000000 0.000000 0.000000 0.000000 0.000000 10.000000 
Rope1_Seg02 0.000000 0.000000 0.000000 0.000000 0.000000 0.000000 10.000000 
Rope1_Seg03 0.000000 0.000000 0.000000 0.000000 0.000000 0.000000 10.000000 
Rope1_Seg04 0.000000 0.000000 0.000000 0.000000 0.000000 0.000000 10.000000 
Rope1_Seg05 0.000000 0.000000 0.000000 0.000000 0.000000 0.000000 10.000000 
Rope1_Seg06 0.000000 0.000000 0.000000 0.000000 0.000000 0.000000 10.000000 
Rope1_Seg07 0.000000 0.000000 0.000000 0.000000 0.000000 0.000000 10.000000 
Rope1_Seg09 0.000000 0.000000 0.000000 0.000000 0.000000 0.000000 10.000000 
L_mid_hand01 0.000000 0.000000 0.000000 0.000000 0.000000 0.000000 10.000000 
L_mid_hand02 0.000000 0.000000 0.000000 0.000000 0.000000 0.000000 10.000000 
L_mid_hand03 0.000000 0.000000 0.000000 0.000000 0.000000 0.000000 10.000000 
null_rope02_connect 0.000000 0.000000 0.000000 0.000000 0.000000 0.000000 10.000000 
Rope2_Seg01 0.000000 0.000000 0.000000 0.000000 0.000000 0.000000 10.000000 
Rope2_Seg02 0.000000 0.000000 0.000000 0.000000 0.000000 0.000000 10.000000 
Rope2_Seg03 0.000000 0.000000 0.000000 0.000000 0.000000 0.000000 10.000000 
Rope2_Seg04 0.000000 0.000000 0.000000 0.000000 0.000000 0.000000 10.000000 
Rope2_Seg05 0.000000 0.000000 0.000000 0.000000 0.000000 0.000000 10.000000 
Rope2_Seg06 0.000000 0.000000 0.000000 0.000000 0.000000 0.000000 10.000000 
Rope2_Seg07 0.000000 0.000000 0.000000 0.000000 0.000000 0.000000 10.000000 
Rope2_Seg09 0.000000 0.000000 0.000000 0.000000 0.000000 0.000000 10.000000 
R_mid_hand01 0.000000 0.000000 0.000000 0.000000 0.000000 0.000000 10.000000 
R_mid_hand02 0.000000 0.000000 0.000000 0.000000 0.000000 0.000000 10.000000 
R_mid_hand03 0.000000 0.000000 0.000000 0.000000 0.000000 0.000000 10.000000 
spine02 0.000000 0.000000 0.000000 0.000000 0.000000 0.000000 10.000000 
spine03 0.000000 0.000000 0.000000 0.000000 0.000000 0.000000 10.000000 
pelvis 0.000000 0.000000 0.000000 0.000000 0.000000 0.000000 10.000000 
null_rope03_connect 0.000000 0.000000 0.000000 0.000000 0.000000 0.000000 10.000000 
null_rope04_connect 0.000000 0.000000 0.000000 0.000000 0.000000 0.000000 10.000000 
Rope3_Seg01 0.000000 0.000000 0.000000 0.000000 0.000000 0.000000 10.000000 
Rope3_Seg02 0.000000 0.000000 0.000000 0.000000 0.000000 0.000000 10.000000 
Rope3_Seg03 0.000000 0.000000 0.000000 0.000000 0.000000 0.000000 10.000000 
Rope3_Seg04 0.000000 0.000000 0.000000 0.000000 0.000000 0.000000 10.000000 
Rope3_Seg05 0.000000 0.000000 0.000000 0.000000 0.000000 0.000000 10.000000 
Rope3_Seg06 0.000000 0.000000 0.000000 0.000000 0.000000 0.000000 10.000000 
Rope3_Seg07 0.000000 0.000000 0.000000 0.000000 0.000000 0.000000 10.000000 
Rope3_Seg08 0.000000 0.000000 0.000000 0.000000 0.000000 0.000000 10.000000 
Rope3_Seg09 0.000000 0.000000 0.000000 0.000000 0.000000 0.000000 10.000000 
R_rear_hand01 0.000000 0.000000 0.000000 0.000000 0.000000 0.000000 10.000000 
R_rear_hand02 0.000000 0.000000 0.000000 0.000000 0.000000 0.000000 10.000000 
R_rear_hand03 0.000000 0.000000 0.000000 0.000000 0.000000 0.000000 10.000000 
Rope4_Seg01 0.000000 0.000000 0.000000 0.000000 0.000000 0.000000 10.000000 
Rope4_Seg02 0.000000 0.000000 0.000000 0.000000 0.000000 0.000000 10.000000 
Rope4_Seg03 0.000000 0.000000 0.000000 0.000000 0.000000 0.000000 10.000000 
Rope4_Seg04 0.000000 0.000000 0.000000 0.000000 0.000000 0.000000 10.000000 
Rope4_Seg05 0.000000 0.000000 0.000000 0.000000 0.000000 0.000000 10.000000 
Rope4_Seg06 0.000000 0.000000 0.000000 0.000000 0.000000 0.000000 10.000000 
Rope4_Seg07 0.000000 0.000000 0.000000 0.000000 0.000000 0.000000 10.000000 
Rope4_Seg08 0.000000 0.000000 0.000000 0.000000 0.000000 0.000000 10.000000 
Rope4_Seg09 0.000000 0.000000 0.000000 0.000000 0.000000 0.000000 10.000000 
L_rear_hand01 0.000000 0.000000 0.000000 0.000000 0.000000 0.000000 10.000000 
L_rear_hand02 0.000000 0.000000 0.000000 0.000000 0.000000 0.000000 10.000000 
L_rear_hand03 0.000000 0.000000 0.000000 0.000000 0.000000 0.000000 10.000000 
#Beginning of Data. Separated by tabs
#Fr	Tx	Ty	Tz	Rx	Ry	Rz	SF
[MASTER]
37 -91.004166 4957.863770 29.647068 0.001660 0.001660 0.001660 4958.787598
38 -82.731178 5273.239746 26.951883 0.001660 0.001660 0.001660 5273.957520
[root]
37 19.949270 163.511703 1023.204712 -95.191818 -31.129250 -87.538940 1036.379272
38 28.256098 28.139532 983.873352 -94.811432 -28.978785 -87.750114 984.681213
[chest]
37 -84.512650 -34.090519 0.000000 4.681313 -13.506624 129.207596 91.129311
38 -84.512650 -34.090519 0.000000 4.305583 -12.174177 131.660904 91.129311
[L_mid_tent01]
37 27.298698 22.178991 -249.918686 -12.435359 29.021402 43.213993 252.381607
38 27.298689 22.178988 -249.918686 -13.634196 27.675938 40.184628 252.381607
[R_mid_tent01]
37 23.228794 24.509907 226.238495 -177.504532 -27.664988 45.260628 228.744751
38 23.228794 24.509907 226.238495 -176.186752 -26.965780 43.170345 228.744751
[spine01]
37 -0.361383 -0.195265 0.000000 -0.000001 -0.000007 22.052340 0.410763
38 -0.361383 -0.195265 0.000000 -0.000001 -0.000007 22.052340 0.410763
[Bip01_Neck]
37 165.484543 71.581718 0.000119 176.643677 -1.657967 43.431911 180.302734
38 165.484543 71.581718 0.000119 176.643677 -1.657967 43.431911 180.302734
[L_humerus]
37 -13.983130 -135.272980 -120.471481 44.051193 83.920906 134.563812 181.680161
38 -13.983130 -135.272980 -120.471481 30.822130 82.844810 121.273041 181.680161
[R_humerus]
37 -13.983309 -135.273102 125.287651 83.843819 -88.520378 11.209474 184.909012
38 -13.983309 -135.273102 125.287651 47.157272 -87.031525 47.946209 184.909012
[weapon_bone]
37 235.964890 -300.705902 0.000000 0.000000 -89.951546 -128.212341 382.234833
38 235.964890 -300.705902 0.000000 0.000000 -89.951546 -128.212341 382.234833
[Bip01_Head]
37 203.285965 162.408447 31.616497 23.806807 3.341907 -49.228695 262.109283
38 203.286041 162.408447 31.616497 22.409409 3.299058 -48.835213 262.109344
[eye_left_bone]
37 -24.626970 125.451866 -64.772606 0.000000 -90.000000 -99.840431 143.318359
38 -24.626970 125.451866 -64.772606 0.000000 -90.000000 -99.840431 143.318359
[eye_right_bone]
37 -24.626970 125.451866 64.327362 0.000000 -89.965736 80.156380 143.117676
38 -24.626970 125.451866 64.327362 0.000000 -89.965736 80.156380 143.117676
[L_forearm]
37 322.776093 0.000000 -0.000119 0.000174 -0.002341 -98.498566 322.776093
38 322.776093 0.000000 -0.000119 0.000147 -0.002343 -97.199547 322.776093
[L_front_hand]
37 241.149185 -0.042021 -3.300071 0.836590 -1.835725 -27.423449 241.171753
38 241.149185 -0.042021 -3.300071 0.836591 -1.835726 -27.423458 241.171753
[L_weapon_bone]
37 156.183838 0.000000 0.000000 0.000014 0.000007 0.000001 156.183838
38 156.183838 0.000000 0.000000 0.000014 0.000007 0.000001 156.183838
[L_front_hand01_01]
37 86.095154 20.947098 -0.655860 -0.366594 -0.477154 75.385574 88.609184
38 86.095154 20.947098 -0.655860 -0.366594 -0.477154 75.385574 88.609184
[L_front_hand02_01]
37 86.935165 -11.437475 24.513514 154.399796 -59.883835 -61.369587 91.046425
38 86.935165 -11.437475 24.513514 154.399796 -59.883835 -61.369587 91.046425
[L_front_hand03_01]
37 86.637497 -14.123976 -20.424902 -153.913879 58.118130 -62.702892 90.126129
38 86.637497 -14.123976 -20.424902 -153.913849 58.118122 -62.702866 90.126129
[L_front_hand01_02]
37 71.020905 -0.000179 0.000030 0.000334 -0.002323 -106.379684 71.020905
38 71.020905 -0.000179 0.000030 0.000334 -0.002323 -106.379684 71.020905
[L_front_hand02_02]
37 71.020927 -0.000119 0.000060 0.000334 -0.002323 -106.379684 71.020927
38 71.020927 -0.000119 0.000060 0.000334 -0.002323 -106.379684 71.020927
[L_front_hand03_02]
37 71.020905 -0.000060 0.000060 0.000334 -0.002323 -106.379684 71.020905
38 71.020905 -0.000060 0.000060 0.000334 -0.002323 -106.379684 71.020905
[R_forearm]
37 322.776428 -0.000060 0.000030 0.212397 0.021496 -97.186150 322.776428
38 322.776428 -0.000060 0.000030 0.212639 0.018951 -95.813934 322.776428
[R_front_hand]
37 238.847015 -0.006795 2.210259 42.936222 -10.646152 -26.312963 238.857239
38 238.847015 -0.006795 2.210259 42.936226 -10.646152 -26.312965 238.857239
[R_weapon_bone]
37 155.664093 0.002503 -0.000030 0.003487 0.001180 -90.988930 155.664078
38 155.664093 0.002503 -0.000030 0.003487 0.001180 -90.988930 155.664078
[R_front_hand01_01]
37 87.624611 14.231146 22.918642 -154.633499 -59.950619 61.746044 91.683487
38 87.624611 14.231146 22.918642 -154.633499 -59.950619 61.746044 91.683487
[R_front_hand02_01]
37 89.356956 14.367283 -19.491137 154.602661 58.302864 63.744389 92.579636
38 89.356956 14.367283 -19.491137 154.602661 58.302849 63.744389 92.579636
[R_front_hand03_01]
37 87.286232 -22.307278 -0.143439 0.162155 -0.423168 -75.767921 90.091743
38 87.286232 -22.307278 -0.143439 0.162155 -0.423168 -75.767921 90.091743
[R_front_hand01_02]
37 71.020905 0.000060 0.000119 0.002323 -0.000334 106.381714 71.020905
38 71.020905 0.000060 0.000119 0.002323 -0.000334 106.381714 71.020905
[R_front_hand02_02]
37 71.020844 -0.000030 -0.000119 0.002323 -0.000334 106.381714 71.020836
38 71.020844 -0.000030 -0.000119 0.002323 -0.000334 106.381714 71.020836
[R_front_hand03_02]
37 71.020905 0.000000 0.000030 0.002323 -0.000334 106.381714 71.020905
38 71.020905 0.000000 0.000030 0.002323 -0.000334 106.381714 71.020905
[null_rope01_connect]
37 328.732483 0.000000 -0.000238 -131.562042 -55.666904 -152.677139 328.732483
38 328.732483 0.000000 -0.000238 -133.673737 -56.547928 -149.926025 328.732483
[Rope1_Seg01]
37 -0.000020 -0.000944 0.000117 8.351014 40.868317 -163.381134 0.000951
38 -0.000022 -0.000969 0.000120 26.744404 42.521973 -142.326813 0.000977
[Rope1_Seg02]
37 139.999863 -0.000179 0.000000 2.069748 -6.236871 17.755354 139.999863
38 139.999863 -0.000179 0.000000 2.386959 -6.923355 16.577936 139.999863
[Rope1_Seg03]
37 139.999924 0.000060 -0.000060 -3.165770 -10.161711 6.639351 139.999924
38 139.999924 0.000060 -0.000060 -4.890808 -13.470748 10.851531 139.999924
[Rope1_Seg04]
37 139.999924 -0.000060 -0.000119 43.131016 12.189589 35.557762 139.999924
38 139.999924 -0.000060 -0.000119 31.483852 10.204576 18.409519 139.999924
[Rope1_Seg05]
37 139.999832 0.000119 -0.000060 21.096212 20.213778 10.160442 139.999832
38 139.999832 0.000119 -0.000060 20.439362 21.520041 5.122478 139.999832
[Rope1_Seg06]
37 139.999954 0.000119 -0.000060 4.152614 6.614572 1.173698 139.999954
38 139.999954 0.000119 -0.000060 4.346826 7.598131 0.032523 139.999954
[Rope1_Seg07]
37 139.999985 0.000060 0.000000 1.953744 3.685838 0.381267 139.999985
38 139.999985 0.000060 0.000000 2.009956 4.331047 -0.293575 139.999985
[Rope1_Seg09]
37 121.602913 0.000119 -0.000089 -89.793175 -1.359789 0.847147 121.602913
38 121.602913 0.000119 -0.000089 -89.793175 -1.359789 0.847147 121.602913
[L_mid_hand01]
37 103.859421 1.038730 8.195221 130.544373 -67.584534 -38.866943 104.187431
38 103.859421 1.038730 8.195221 130.544373 -67.584534 -38.866943 104.187431
[L_mid_hand02]
37 105.572853 -4.139662 -10.864139 -168.923172 43.409309 -73.498886 106.211075
38 105.572853 -4.139662 -10.864139 -168.923172 43.409309 -73.498886 106.211075
[L_mid_hand03]
37 104.641464 17.579376 -3.913581 -6.012627 17.808174 74.893669 106.179977
38 104.641464 17.579376 -3.913581 -6.012627 17.808174 74.893669 106.179977
[null_rope02_connect]
37 328.732849 0.000179 -0.000119 -101.120544 63.622154 4.552523 328.732849
38 328.732849 0.000179 -0.000119 -104.502480 64.204857 1.461665 328.732849
[Rope2_Seg01]
37 0.000067 0.000036 0.000000 7.343661 36.156216 -57.448006 0.000076
38 0.000068 0.000032 0.000000 6.199308 34.541210 -58.188396 0.000076
[Rope2_Seg02]
37 139.999741 -0.000060 -0.000119 -1.048826 -2.988922 -0.317314 139.999756
38 139.999741 -0.000060 -0.000119 -3.983292 -3.660180 -4.729572 139.999756
[Rope2_Seg03]
37 140.000107 0.000030 0.000000 -0.276989 -3.804162 1.386545 140.000107
38 140.000107 0.000030 0.000000 -5.390406 -4.452813 -6.327641 140.000107
[Rope2_Seg04]
37 139.999802 0.000000 -0.000060 -2.560876 -2.927097 -1.966863 139.999802
38 139.999802 0.000000 -0.000060 -5.441117 -3.416816 -6.690630 139.999802
[Rope2_Seg05]
37 139.999985 -0.000060 0.000119 -7.755285 0.889074 -11.269789 139.999985
38 139.999985 -0.000060 0.000119 -1.246393 0.621989 -2.092490 139.999985
[Rope2_Seg06]
37 139.999893 -0.000030 -0.000119 -4.586867 1.250067 -8.217789 139.999893
38 139.999893 -0.000030 -0.000119 -1.455712 0.150781 -2.280572 139.999893
[Rope2_Seg07]
37 139.999893 0.000060 -0.000060 -2.498215 1.158449 -5.313955 139.999893
38 139.999893 0.000060 -0.000060 -1.161592 0.052272 -1.838849 139.999893
[Rope2_Seg09]
37 121.338966 0.000089 -0.000060 33.793236 -1.359788 -0.847141 121.338966
38 121.338966 0.000089 -0.000060 33.793236 -1.359788 -0.847141 121.338966
[R_mid_hand01]
37 104.680779 11.144459 -10.335981 -16.212059 45.237240 70.462852 105.778534
38 104.680779 11.144459 -10.335981 -16.212063 45.237247 70.462852 105.778534
[R_mid_hand02]
37 104.070427 2.443552 8.231699 49.067371 -67.749794 39.286472 104.424065
38 104.070427 2.443552 8.231699 49.067368 -67.749771 39.286453 104.424065
[R_mid_hand03]
37 106.028137 -11.221827 -5.996406 -177.101105 15.551026 -76.585571 106.788818
38 106.028137 -11.221827 -5.996406 -177.101105 15.551026 -76.585571 106.788818
[spine02]
37 129.756927 0.001550 0.000119 0.410901 -4.039437 -13.659181 129.756927
38 129.756927 0.001550 0.000119 0.403866 -4.040210 -13.552628 129.756927
[spine03]
37 78.613922 0.081635 -4.899019 1.927292 3.816188 16.948021 78.766457
38 78.613922 0.081635 -4.899020 1.921949 3.817833 16.875814 78.766457
[pelvis]
37 169.435242 0.051022 0.000000 -0.061945 -0.179722 15.030262 169.435257
38 169.435242 0.051022 0.000000 -0.061734 -0.179795 14.895606 169.435257
[null_rope03_connect]
37 -1.257226 -2.466202 137.391083 175.849960 -86.635941 -94.992996 137.418976
38 -1.257226 -2.466202 137.391083 173.795929 -86.866814 -95.001686 137.418976
[null_rope04_connect]
37 -1.259640 -2.480268 -137.844437 175.849960 -86.635941 -94.992996 137.872513
38 -1.259640 -2.480268 -137.844437 173.795929 -86.866814 -95.001686 137.872513
[Rope3_Seg01]
37 0.000018 -0.000476 0.000000 4.045074 -65.299065 -52.708546 0.000477
38 0.000016 -0.000489 0.000000 20.569275 -51.016315 -74.693504 0.000489
[Rope3_Seg02]
37 139.999924 -0.000119 0.000060 -2.805731 27.453094 -9.860126 139.999924
38 139.999924 -0.000119 0.000060 -2.857714 15.933145 -4.785384 139.999924
[Rope3_Seg03]
37 139.999924 -0.000119 0.000119 2.789118 31.221197 -6.754407 139.999924
38 139.999924 -0.000119 0.000119 -1.345937 21.714109 -4.790200 139.999924
[Rope3_Seg04]
37 139.999924 0.000119 0.000000 1.543596 5.569396 -6.116246 139.999924
38 139.999924 0.000119 0.000000 0.721327 13.469872 -3.609062 139.999924
[Rope3_Seg05]
37 139.999924 -0.000238 0.000060 -0.076407 -11.274168 -5.404838 139.999924
38 139.999924 -0.000238 0.000060 -0.259272 -8.183505 -1.135113 139.999924
[Rope3_Seg06]
37 139.999893 -0.000119 -0.000060 0.646957 -5.289931 -3.459821 139.999893
38 139.999893 -0.000119 -0.000060 0.434890 -4.675832 -0.669486 139.999893
[Rope3_Seg07]
37 139.999771 0.000060 -0.000119 0.665268 -2.715758 -2.319649 139.999771
38 139.999771 0.000060 -0.000119 0.559076 -1.741595 -0.550940 139.999771
[Rope3_Seg08]
37 139.999985 -0.000060 0.000000 0.657049 -1.745944 -1.457674 139.999985
38 139.999985 -0.000060 0.000000 0.578595 -1.094625 -0.335251 139.999985
[Rope3_Seg09]
37 90.185997 -0.000179 -0.000060 89.793228 -1.359877 -0.847183 90.185997
38 90.185997 -0.000179 -0.000060 89.793228 -1.359877 -0.847183 90.185997
[R_rear_hand01]
37 103.366196 -6.073594 -10.757982 -177.714203 24.565960 -73.910950 104.101845
38 103.366196 -6.073594 -10.757982 -177.714203 24.565960 -73.910950 104.101845
[R_rear_hand02]
37 100.509819 12.039542 -7.992327 -12.874829 36.868488 72.167213 101.543350
38 100.509819 12.039542 -7.992327 -12.874829 36.868488 72.167213 101.543350
[R_rear_hand03]
37 101.539970 5.215704 5.435467 71.484634 -71.816666 21.513840 101.819031
38 101.539970 5.215704 5.435467 71.484581 -71.816628 21.513813 101.819031
[Rope4_Seg01]
37 -0.000012 -0.000018 -0.000153 -79.484009 -23.760187 -143.677109 0.000154
38 -0.000012 -0.000016 -0.000153 -91.376793 -13.003950 -129.508957 0.000154
[Rope4_Seg02]
37 139.999985 0.000060 0.000119 -7.012530 -0.750019 12.658960 139.999985
38 139.999985 0.000060 0.000119 -3.036451 -2.715479 6.882296 139.999985
[Rope4_Seg03]
37 139.999924 0.000000 -0.000238 -8.131124 5.513919 14.588394 139.999924
38 139.999924 0.000000 -0.000238 -3.958049 -2.705761 8.979476 139.999924
[Rope4_Seg04]
37 139.999985 0.000000 0.000119 -5.458276 -13.679798 2.182864 139.999985
38 139.999985 0.000000 0.000119 -3.550540 -3.833520 7.293985 139.999985
[Rope4_Seg05]
37 139.999802 -0.000060 -0.000119 1.006352 -12.559495 -6.451385 139.999802
38 139.999802 -0.000060 -0.000119 1.866374 -2.451594 -6.329675 139.999802
[Rope4_Seg06]
37 139.999924 0.000000 0.000060 0.036183 -3.955528 -1.286260 139.999924
38 139.999924 0.000000 0.000060 0.829280 -1.118290 -3.177248 139.999924
[Rope4_Seg07]
37 139.999802 0.000000 0.000000 0.090704 -2.386770 -0.712565 139.999802
38 139.999802 0.000000 0.000000 0.335726 -0.751676 -1.162829 139.999802
[Rope4_Seg08]
37 139.999924 0.000000 0.000119 -1.476994 -1.423332 -0.420228 139.999924
38 139.999924 0.000000 0.000119 -1.340843 -0.456634 -0.700286 139.999924
[Rope4_Seg09]
37 90.185791 0.000060 0.000060 -135.617828 2.228885 0.850567 90.185791
38 90.185791 0.000060 0.000060 -135.617828 2.228885 0.850567 90.185791
[L_rear_hand01]
37 101.696655 -8.392275 -7.654577 -12.874829 -36.868488 107.832764 102.329041
38 101.696655 -8.392275 -7.654577 -12.874829 -36.868488 107.832764 102.329041
[L_rear_hand02]
37 102.726799 -1.568258 5.773216 71.484581 71.816628 158.486160 102.900848
38 102.726799 -1.568258 5.773216 71.484581 71.816628 158.486160 102.900848
[L_rear_hand03]
37 104.552910 9.721220 -10.420293 -177.714203 -24.565960 -106.089035 105.519653
38 104.552910 9.721220 -10.420293 -177.714203 -24.565960 -106.089035 105.519653
